<svg width="1200" height="420" viewBox="0 0 1200 420" fill="none" xmlns="http://www.w3.org/2000/svg">
  <defs>
    <linearGradient id="bg" x1="0" y1="0" x2="1200" y2="420" gradientUnits="userSpaceOnUse">
      <stop stop-color="#000000"/>
      <stop offset="0.52" stop-color="#111111"/>
      <stop offset="1" stop-color="#F4F4F5"/>
    </linearGradient>
    <linearGradient id="stroke" x1="120" y1="60" x2="1080" y2="360" gradientUnits="userSpaceOnUse">
      <stop stop-color="#FFFFFF"/>
      <stop offset="0.5" stop-color="#737373"/>
      <stop offset="1" stop-color="#000000"/>
    </linearGradient>
    <filter id="glow" x="-20%" y="-20%" width="140%" height="140%">
      <feGaussianBlur stdDeviation="6" result="blur"/>
      <feColorMatrix in="blur" type="matrix" values="1 0 0 0 1  1 0 0 0 1  1 0 0 0 1  0 0 0 .55 0"/>
      <feBlend in="SourceGraphic"/>
    </filter>
    <pattern id="grid" width="32" height="32" patternUnits="userSpaceOnUse">
      <path d="M32 0H0V32" stroke="#FFFFFF" stroke-opacity=".08"/>
    </pattern>
  </defs>

  <rect width="1200" height="420" rx="28" fill="url(#bg)"/>
  <rect width="1200" height="420" rx="28" fill="url(#grid)"/>
  <rect x="28" y="28" width="1144" height="364" rx="22" stroke="url(#stroke)" stroke-opacity=".65"/>

  <g filter="url(#glow)">
    <circle cx="995" cy="118" r="70" stroke="#FFFFFF" stroke-opacity=".5"/>
    <circle cx="995" cy="118" r="42" stroke="#FFFFFF" stroke-opacity=".35"/>
    <path d="M940 118H1050M995 63V173" stroke="#FFFFFF" stroke-opacity=".35"/>
  </g>

  <g opacity=".95">
    <text x="72" y="132" fill="#FFFFFF" font-family="Arial, Helvetica, sans-serif" font-size="24" font-weight="700" letter-spacing="6">BIGODE PAY UNIVERSE</text>
    <text x="72" y="212" fill="#FFFFFF" font-family="Arial, Helvetica, sans-serif" font-size="66" font-weight="900">Command Center</text>
    <text x="76" y="260" fill="#D4D4D8" font-family="Arial, Helvetica, sans-serif" font-size="24">Checkout, pagamentos, assinaturas, comunidade, webhooks e IA.</text>
  </g>

  <g transform="translate(72 304)">
    <rect width="166" height="44" rx="22" fill="#FFFFFF"/>
    <text x="22" y="29" fill="#000000" font-family="Arial, Helvetica, sans-serif" font-size="15" font-weight="800">PIX + CARTAO</text>
    <rect x="182" width="190" height="44" rx="22" fill="#111111" stroke="#FFFFFF" stroke-opacity=".45"/>
    <text x="206" y="29" fill="#FFFFFF" font-family="Arial, Helvetica, sans-serif" font-size="15" font-weight="800">WEBHOOK SEGURO</text>
    <rect x="388" width="150" height="44" rx="22" fill="#111111" stroke="#FFFFFF" stroke-opacity=".45"/>
    <text x="414" y="29" fill="#FFFFFF" font-family="Arial, Helvetica, sans-serif" font-size="15" font-weight="800">BIGODE AI</text>
  </g>

  <g transform="translate(745 205)">
    <rect width="350" height="122" rx="18" fill="#070707" stroke="#FFFFFF" stroke-opacity=".35"/>
    <rect x="22" y="24" width="138" height="14" rx="7" fill="#FFFFFF"/>
    <rect x="22" y="52" width="260" height="10" rx="5" fill="#FFFFFF" fill-opacity=".36"/>
    <rect x="22" y="76" width="210" height="10" rx="5" fill="#FFFFFF" fill-opacity=".22"/>
    <rect x="250" y="72" width="72" height="28" rx="14" fill="#FFFFFF"/>
    <text x="269" y="91" fill="#000000" font-family="Arial, Helvetica, sans-serif" font-size="12" font-weight="800">LIVE</text>
  </g>
</svg>
