<svg width="980" height="460" viewBox="0 0 980 460" fill="none" xmlns="http://www.w3.org/2000/svg">
  <defs>
    <linearGradient id="panel" x1="0" y1="0" x2="980" y2="460">
      <stop stop-color="#050505"/>
      <stop offset="1" stop-color="#1A1A1A"/>
    </linearGradient>
    <linearGradient id="line" x1="80" y1="120" x2="650" y2="300">
      <stop stop-color="#FFFFFF"/>
      <stop offset="1" stop-color="#71717A"/>
    </linearGradient>
  </defs>
  <rect width="980" height="460" rx="24" fill="url(#panel)"/>
  <rect x="24" y="24" width="932" height="412" rx="18" stroke="#FFFFFF" stroke-opacity=".16"/>

  <text x="54" y="70" fill="#FFFFFF" font-family="Arial, Helvetica, sans-serif" font-size="22" font-weight="900">BIGODE PAY COMMAND CENTER</text>
  <text x="54" y="100" fill="#A1A1AA" font-family="Arial, Helvetica, sans-serif" font-size="15">Controle premium para operacoes de checkout e pagamento.</text>

  <g transform="translate(54 136)">
    <rect width="190" height="86" rx="14" fill="#FFFFFF"/>
    <text x="18" y="34" fill="#000000" font-family="Arial, Helvetica, sans-serif" font-size="14" font-weight="800">Receita</text>
    <text x="18" y="64" fill="#000000" font-family="Arial, Helvetica, sans-serif" font-size="28" font-weight="900">R$ 24.8k</text>
  </g>
  <g transform="translate(266 136)">
    <rect width="190" height="86" rx="14" fill="#111111" stroke="#FFFFFF" stroke-opacity=".18"/>
    <text x="18" y="34" fill="#FFFFFF" font-family="Arial, Helvetica, sans-serif" font-size="14" font-weight="800">Conversao</text>
    <text x="18" y="64" fill="#FFFFFF" font-family="Arial, Helvetica, sans-serif" font-size="28" font-weight="900">18.7%</text>
  </g>
  <g transform="translate(478 136)">
    <rect width="190" height="86" rx="14" fill="#111111" stroke="#FFFFFF" stroke-opacity=".18"/>
    <text x="18" y="34" fill="#FFFFFF" font-family="Arial, Helvetica, sans-serif" font-size="14" font-weight="800">PIX aprovado</text>
    <text x="18" y="64" fill="#FFFFFF" font-family="Arial, Helvetica, sans-serif" font-size="28" font-weight="900">94%</text>
  </g>
  <g transform="translate(690 136)">
    <rect width="220" height="86" rx="14" fill="#111111" stroke="#FFFFFF" stroke-opacity=".18"/>
    <text x="18" y="34" fill="#FFFFFF" font-family="Arial, Helvetica, sans-serif" font-size="14" font-weight="800">Assinantes ativos</text>
    <text x="18" y="64" fill="#FFFFFF" font-family="Arial, Helvetica, sans-serif" font-size="28" font-weight="900">1,284</text>
  </g>

  <g transform="translate(54 250)">
    <rect width="566" height="146" rx="16" fill="#0B0B0B" stroke="#FFFFFF" stroke-opacity=".14"/>
    <path d="M34 104C86 78 124 94 166 61C218 20 260 116 322 78C370 48 416 62 520 34" stroke="url(#line)" stroke-width="5" stroke-linecap="round"/>
    <circle cx="166" cy="61" r="7" fill="#FFFFFF"/>
    <circle cx="322" cy="78" r="7" fill="#FFFFFF"/>
    <circle cx="520" cy="34" r="7" fill="#FFFFFF"/>
    <text x="28" y="34" fill="#FFFFFF" font-family="Arial, Helvetica, sans-serif" font-size="14" font-weight="800">Receita em tempo real</text>
  </g>

  <g transform="translate(646 250)">
    <rect width="264" height="146" rx="16" fill="#0B0B0B" stroke="#FFFFFF" stroke-opacity=".14"/>
    <text x="22" y="34" fill="#FFFFFF" font-family="Arial, Helvetica, sans-serif" font-size="14" font-weight="800">Atividade recente</text>
    <rect x="22" y="55" width="214" height="10" rx="5" fill="#FFFFFF" fill-opacity=".7"/>
    <rect x="22" y="82" width="168" height="10" rx="5" fill="#FFFFFF" fill-opacity=".38"/>
    <rect x="22" y="109" width="198" height="10" rx="5" fill="#FFFFFF" fill-opacity=".22"/>
  </g>
</svg>
